<svg width="512" height="512" viewBox="0 0 512 512" fill="none" xmlns="http://www.w3.org/2000/svg">
<rect width="512" height="512" fill="#C4F135"/>
<path d="M169.567 426.909C170.739 428.156 172.217 429.071 173.852 429.563C175.488 430.054 177.224 430.105 178.885 429.709C180.547 429.313 182.075 428.485 183.317 427.308C184.558 426.131 185.469 424.647 185.957 423.005L199.014 375.317L258.463 149.985C258.743 148.753 259.431 147.652 260.415 146.864C261.4 146.076 262.621 145.647 263.88 145.647C265.139 145.647 266.361 146.076 267.345 146.864C268.329 147.652 269.017 148.753 269.297 149.985L275.687 167.275C277.932 173.413 281.636 178.907 286.477 183.282C291.319 187.656 297.151 190.777 303.467 192.374L359.027 207.712C364.418 209.197 369.238 212.28 372.857 216.559C376.475 220.838 378.722 226.114 379.306 231.696C379.714 238.377 378.6 245.065 376.049 251.25C373.498 257.435 369.577 262.955 364.583 267.392L350.693 279.383C339.673 289.06 331.816 301.848 328.148 316.077C324.481 330.306 325.173 345.314 330.135 359.142L352.915 423.283C353.454 424.737 354.313 426.049 355.427 427.123C356.541 428.198 357.882 429.006 359.35 429.488C360.818 429.97 362.375 430.114 363.907 429.909C365.438 429.704 366.903 429.155 368.194 428.303C397.004 407.009 419.282 378.024 432.492 344.647C445.703 311.27 449.317 274.841 442.922 239.504C436.204 201.766 418.331 166.93 391.627 139.525C364.923 112.121 330.623 93.4163 293.188 85.8433C267.135 80.5282 240.263 80.7281 214.291 86.4302C188.319 92.1323 163.818 103.211 142.353 118.959C120.888 134.706 102.932 154.776 89.6325 177.886C76.333 200.995 67.9824 226.636 65.1144 253.169C64.835 255.384 65.0691 257.635 65.7983 259.744C66.5276 261.854 67.7324 263.766 69.3187 265.332C70.9051 266.897 72.83 268.074 74.9437 268.77C77.0574 269.466 79.3029 269.662 81.5047 269.344C88.9908 268.643 96.5401 269.523 103.667 271.927C110.794 274.33 117.342 278.204 122.889 283.3C128.435 288.395 132.858 294.599 135.874 301.513C138.889 308.427 140.431 315.898 140.398 323.446V351.333C140.729 379.231 151.088 406.07 169.567 426.909V426.909Z" fill="#25392B"/>
<path d="M300.688 244.587C310.201 244.587 317.912 236.846 317.912 227.297C317.912 217.747 310.201 210.006 300.688 210.006C291.176 210.006 283.465 217.747 283.465 227.297C283.465 236.846 291.176 244.587 300.688 244.587Z" fill="#25392B"/>
</svg>
