<svg viewBox="0 0 470.17 517.18" xmlns="http://www.w3.org/2000/svg"><path d="m13.15 327.24 38.75 143.02h136.17v-4.8c15.19 3.08 30.91 4.71 47.02 4.71s31.82-1.62 47.02-4.71v4.8h136.17l38.75-143.02c8.72-29.93 13.14-60.95 13.15-92.13 0-.01 0-.02 0-.03-.01-129.83-105.26-235.08-235.1-235.08s-235.08 105.25-235.08 235.08v.03c0 31.18 4.43 62.19 13.15 92.13z" fill="#a69890"/><path d="m137.13 470.26h98.94l2.08-2.4-150.17-113.62c-24.4-18.46-53.71 15.6-31.82 36.98z" fill="#80736d"/><path d="m164.56 282.1h141.05v188.16h-141.05z" fill="#c2b2a9"/><g fill="#80736d"><path d="m188.07 470.26v-94.13h-23.51c-23.64 26.24-38.12 59.26-41.56 94.13z"/><path d="m235.08 282.1-23.51-23.51-72.56-40.47 6.87-30.05h89.2z"/><path d="m235.08 282.1 23.51-23.51 72.57-40.47-6.88-30.05h-89.2z"/></g><path d="m258.59 258.59c0-26.45 21.84-47.79 48.46-47h22.61s.03.09.03.09l16.2 70.8c6.6 28.83-2.74 58.99-24.48 79.05l-15.8 14.58h-47.02v-117.54z" fill="#c2b2a9"/><path d="m182.73 211.57-13.2-64.72c-.69-3.38-3.66-5.8-7.11-5.8-3.38 0-6.32 2.34-7.07 5.63l-14.85 64.89z" fill="#80736d"/><path d="m211.57 258.59c0-26.45-21.84-47.79-48.46-47h-22.61l-.03.09-16.2 70.81c-6.6 28.83 2.74 58.99 24.48 79.05l15.8 14.58h47.02v-117.54z" fill="#c2b2a9"/><circle cx="164.56" cy="258.59" fill="#221f1f" r="23.51"/><path d="m258.59 258.59h-47.02c0 15.7-7.72 29.56-19.54 38.1 5.12 9.05 14.72 15.23 25.86 15.23h34.38c11.14 0 20.74-6.18 25.86-15.23-11.82-8.54-19.55-22.4-19.55-38.1z" fill="#a69890"/><path d="m235.08 282.1 23.51-23.51h-47.02z" fill="#221f1f"/><path d="m280.16 423.15h48.96s9.19 47.02 9.19 47.02l-56.2.1v46.92s0 0 0 0c-25.97 0-47.02-21.05-47.02-47.02v-1.94c0-24.89 20.18-45.07 45.07-45.07z" fill="#80736d"/><path d="m287.43 211.57 13.2-64.72c.69-3.38 3.66-5.8 7.11-5.8 3.38 0 6.32 2.34 7.07 5.63l14.85 64.89z" fill="#80736d"/><circle cx="305.61" cy="258.59" fill="#221f1f" r="23.51"/><path d="m305.61 376.13h-23.51v94.13s65.07 0 65.07 0c-3.44-34.87-17.92-67.89-41.56-94.13z" fill="#80736d"/></svg>